# AST/ASF file generated using VICON BodyLanguage
# -----------------------------------------------
:version 1.10
:name VICON
:units
  mass 1.0
  length 0.45
  angle deg
:documentation
   .ast/.asf automatically generated from VICON data using
   VICON BodyBuilder and BodyLanguage model FoxedUp or BRILLIANT.MOD
:root
   order TX TY TZ RX RY RZ
   axis XYZ
   position 0 0 0  
   orientation 0 0 0 
:bonedata
  begin
     id 1 
     name lhipjoint
     direction 0.521689 -0.742065 0.420928 
     length 2.47002 
     axis 0 0 0  XYZ
  end
  begin
     id 2 
     name lfemur
     direction 0.34202 -0.939693 0  
     length 7.24654  
     axis 0 0 20  XYZ
    dof rx ry rz
    limits (-160.0 20.0)
           (-70.0 70.0)
           (-60.0 70.0)
  end
  begin
     id 3 
     name ltibia
     direction 0.34202 -0.939693 0   
     length 8.04849   
     axis 0 0 20   XYZ
    dof rx
    limits (-10.0 170.0)
  end
  begin
     id 4 
     name lfoot
     direction 0.0745411 -0.2048 0.975961   
     length 1.72367   
     axis -90 7.62852e-016 20   XYZ
    dof rx rz
    limits (-45.0 90.0)
           (-70.0 20.0)
  end
  begin
     id 5 
     name ltoes
     direction 1.53556e-011 -4.21901e-011 1   
     length 0.87311   
     axis -90 7.62852e-016 20   XYZ
    dof rx
    limits (-90.0 20.0)
  end
  begin
     id 6 
     name rhipjoint
     direction -0.52849 -0.738415 0.418857   
     length 2.48223  
     axis 0 0 0  XYZ 
  end
  begin
     id 7 
     name rfemur
     direction -0.34202 -0.939693 0   
     length 7.15571   
     axis 0 0 -20   XYZ
    dof rx ry rz
    limits (-160.0 20.0)
           (-70.0 70.0)
           (-70.0 60.0)
  end
  begin
     id 8 
     name rtibia
     direction -0.34202 -0.939693 0   
     length 7.81659   
     axis 0 0 -20   XYZ
    dof rx
    limits (-10.0 170.0)
 end
 begin
     id 9 
     name rfoot
     direction -0.0917348 -0.252039 0.963359   
     length 1.84382  
     axis -90 -7.62852e-016 -20   XYZ
    dof rx rz
    limits (-45.0 90.0)
           (-20.0 70.0)
  end
  begin
     id 10 
     name rtoes
     direction -1.53551e-011 -4.21879e-011 1   
     length 0.927771   
     axis -90 -7.62852e-016 -20   XYZ
    dof rx
    limits (-90.0 20.0)
  end
  begin
     id 11 
     name lowerback
     direction 0.00583058 0.999822 0.0179296   
     length 2.1429   
     axis 0 0 0   XYZ
    dof rx ry rz
    limits (-20.0 45.0)
           (-30.0 30.0)
           (-30.0 30.0)
  end
  begin
     id 12 
     name upperback
     direction -0.0137999 0.999752 -0.0175071   
     length 2.14252   
     axis 0 0 0   XYZ
    dof rx ry rz
    limits (-20.0 45.0)
           (-30.0 30.0)
           (-30.0 30.0)
  end
  begin
     id 13 
     name thorax
     direction -0.0158036 0.99955 -0.0254909   
     length 2.1383   
     axis 0 0 0   XYZ
    dof rx ry rz
    limits (-20.0 45.0)
           (-30.0 30.0)
           (-30.0 30.0)
  end
  begin
     id 14 
     name lowerneck
     direction -0.0101179 0.999403 -0.0330262   
     length 1.65808   
     axis 0 0 0   XYZ
    dof rx ry rz
    limits (-20.0 45.0)
           (-30.0 30.0)
           (-30.0 30.0)
  end
  begin
     id 15 
     name upperneck
     direction 0.0497734 0.995978 -0.074501   
     length 1.5897   
     axis 0 0 0   XYZ
    dof rx ry rz
    limits (-20.0 45.0)
           (-30.0 30.0)
           (-30.0 30.0)
  end
  begin
     id 16
     name head
     direction 0.0189524 0.999519 -0.0245438  
     length 1.74024  
     axis 0 0 0   XYZ
    dof rx ry rz
    limits (-20.0 45.0)
           (-30.0 30.0)
           (-30.0 30.0)
  end
  begin
     id 17 
     name lclavicle
     direction 0.945604 0.324422 0.0241537  
     length 3.59089  
     axis 0 0 0   XYZ
    dof ry rz
    limits (-20.0 10.0)
           (0.0 20.0)
  end
  begin
     id 18 
     name lhumerus
     direction 1 -4.48964e-011 -2.63524e-027   
     length 5.2391   
     axis 180 -30 -90   XYZ
    dof rx ry rz
    limits (-60.0 90.0)
           (-90.0 90.0)
           (-90.0 90.0)
  end
  begin
     id 19
     name lradius
     direction 1 -4.48969e-011 3.86978e-028   
     length 3.31467   
     axis 180 -30 -90   XYZ
    dof rx
    limits (-10.0 170.0)
  end
  begin
     id 20
     name lwrist
     direction 1 -4.48963e-011 7.20928e-028   
     length 1.65734   
     axis -5.52449e-016 90 90   XYZ
    dof ry
    limits (-180.0 0.0)
 end
  begin
     id 21 
     name lhand
     direction 1 -4.48964e-011 1.44186e-027   
     length 0.9659   
     axis -9.20027e-016 90 90   XYZ
    dof rx rz
    limits (-90.0 90.0)
           (-45.0 45.0)
  end
  begin
     id 22 
     name lfingers
     direction 1 -4.48965e-011 2.88371e-027   
     length 0.778733   
     axis -1.84005e-015 90 90   XYZ
    dof rx
    limits (0.0 90.0)
  end
  begin
     id 23
     name lthumb
     direction 0.707107 -6.34931e-011 0.707107   
     length 1.11811   
     axis -90 45 2.85299e-015   XYZ
    dof rx rz
    limits (-45.0 45.0)
           (-45.0 45.0)
  end
  begin
     id 24 
     name rclavicle
     direction -0.923762 0.370785 0.0958234   
     length 3.54196  
     axis 0 0 0   XYZ 
    dof ry rz
    limits (-10.0 20.0)
           (-20.0 0.0)
  end
  begin
     id 25 
     name rhumerus
     direction -1 -4.48966e-011 1.18702e-017  
     length 5.30252   
     axis 180 30 90   XYZ
    dof rx ry rz
    limits (-90.0 60.0)
           (-90.0 90.0)
           (-90.0 90.0)
  end
  begin
     id 26 
     name rradius
     direction -1 -4.48966e-011 4.46736e-027   
     length 3.67875   
     axis 180 30 90   XYZ
    dof rx
    limits (-10.0 170.0)
  end
  begin
     id 27 
     name rwrist
     direction -1 -4.48966e-011 7.20928e-028   
     length 1.83937   
     axis -5.52449e-016 -90 -90   XYZ
    dof ry
    limits (-180.0 0.0)
  end
  begin
     id 28
     name rhand
     direction -1 -4.48973e-011 1.44186e-027   
     length 0.594811   
     axis -9.20027e-016 -90 -90   XYZ
    dof rx rz
    limits (-90.0 90.0)
           (-45.0 45.0)
  end
  begin
     id 29
     name rfingers
     direction -1 -4.48963e-011 2.88371e-027   
     length 0.479552   
     axis -1.84005e-015 -90 -90   XYZ
    dof rx
    limits (0.0 90.0)
  end
  begin
     id 30
     name rthumb
     direction -0.707107 -6.34932e-011 0.707107   
     length 0.688544   
     axis -90 -45 -2.85299e-015   XYZ
    dof rx rz
    limits (-45.0 45.0)
           (-45.0 45.0)
  end
:hierarchy
  begin
    root lhipjoint rhipjoint lowerback
    lhipjoint lfemur
    lfemur ltibia
    ltibia lfoot
    lfoot ltoes
    rhipjoint rfemur
    rfemur rtibia
    rtibia rfoot
    rfoot rtoes
    lowerback upperback
    upperback thorax
    thorax lowerneck lclavicle rclavicle
    lowerneck upperneck
    upperneck head
    lclavicle lhumerus
    lhumerus lradius
    lradius lwrist
    lwrist lhand lthumb
    lhand lfingers
    rclavicle rhumerus
    rhumerus rradius
    rradius rwrist
    rwrist rhand rthumb
    rhand rfingers
  end

#!OML:ASF E:\acrobat2\Project_11_07_03\Capture day 1\Session 1\Acrobat.ASF
:FULLY-SPECIFIED
:DEGREES
990
root 9.9196 27.1874 17.7302 6.9108 -19.4186 11.1256
lowerback 17.1556 2.66122 11.7954
upperback 9.47454 5.02307 7.21448
thorax 1.05606 2.67627 0.310699
lowerneck -0.744681 -5.18646 -2.86926
upperneck 17.9917 -5.81041 -6.91686
head 5.42717 -3.418 -1.96434
rclavicle -6.36111e-015 -4.45278e-014
rhumerus 47.0651 21.7599 -49.0544
rradius 40.6603
rwrist -1.02675
rhand -18.1967 -15.5873
rfingers 7.12502
rthumb 8.08051 -45.4128
lclavicle -6.36111e-015 -4.45278e-014
lhumerus 12.6685 52.6994 7.97708
lradius 81.3588
lwrist 5.27669
lhand -50.8289 -57.1606
lfingers 7.12502
lthumb -23.3845 -28.5613
rfemur -38.5433 -7.51407 8.50644
rtibia 42.5886
rfoot -13.4615 -16.1103
rtoes -16.366
lfemur -44.6458 -1.83425 -30.3305
ltibia 49.1716
lfoot 10.5203 -12.0861
ltoes 42.1013
991
root 9.88 27.1993 17.8296 6.68579 -19.727 10.9366
lowerback 17.0851 2.65962 11.514
upperback 9.50944 4.9658 7.20806
thorax 1.09545 2.64056 0.467525
lowerneck -0.63916 -5.1224 -2.8031
upperneck 18.6192 -5.69271 -6.97994
head 5.60393 -3.37287 -2.00263
rclavicle -1.27222e-014 1.90833e-014
rhumerus 46.8643 21.9661 -49.8574
rradius 41.793
rwrist -0.598671
rhand -18.1318 -14.9812
rfingers 7.12502
rthumb 8.14316 -44.8043
lclavicle -1.27222e-014 1.90833e-014
lhumerus 14.4935 52.3879 8.50453
lradius 81.8072
lwrist 4.99745
lhand -50.0448 -56.1082
lfingers 7.12502
lthumb -22.6321 -27.415
rfemur -38.2991 -7.3408 8.44926
rtibia 41.8733
rfoot -11.6903 -15.9529
rtoes -15.1509
lfemur -43.7463 -3.32395 -29.5187
ltibia 49.3832
lfoot 9.96963 -12.691
ltoes 42.5895
992
root 9.83891 27.2174 17.9321 6.48293 -20.1843 10.7274
lowerback 17.0328 2.6772 11.2252
upperback 9.52528 4.93701 7.16341
thorax 1.10956 2.61778 0.581644
lowerneck -0.528848 -5.02361 -2.8081
upperneck 19.1782 -5.53562 -6.99055
head 5.76454 -3.309 -2.00952
rclavicle -1.27222e-014 -2.54444e-014
rhumerus 46.4394 22.2699 -50.8474
rradius 43.0628
rwrist -0.411935
rhand -18.2838 -14.4429
rfingers 7.12502
rthumb 7.99644 -44.2716
lclavicle -1.27222e-014 -2.54444e-014
lhumerus 16.1593 51.7945 8.95648
lradius 82.3113
lwrist 4.61827
lhand -49.2592 -55.2413
lfingers 7.12502
lthumb -21.8779 -26.4582
rfemur -38.107 -6.99762 8.41381
rtibia 41.1446
rfoot -10.0001 -15.6714
rtoes -13.4333
lfemur -42.5584 -4.78757 -28.7112
ltibia 48.8294
lfoot 8.80929 -13.5311
ltoes 42.1558
993
root 9.79797 27.2395 18.0412 6.31481 -20.867 10.5226
lowerback 16.9474 2.73834 10.9301
upperback 9.53414 4.95806 7.05636
thorax 1.14174 2.62132 0.628029
lowerneck -0.398505 -4.89031 -2.89582
upperneck 19.6378 -5.34879 -6.90238
head 5.89777 -3.22814 -1.96734
rclavicle 2.8625e-014 -5.725e-014
rhumerus 45.7686 22.6751 -52.0658
rradius 44.4749
rwrist -0.457801
rhand -18.6056 -13.9912
rfingers 7.12502
rthumb 7.68579 -43.8315
lclavicle 2.8625e-014 -5.725e-014
lhumerus 17.6825 50.974 9.33551
lradius 82.7842
lwrist 4.12499
lhand -48.515 -54.4916
lfingers 7.12502
lthumb -21.1632 -25.6267
rfemur -38.0079 -6.52793 8.40375
rtibia 40.4193
rfoot -8.41986 -15.1809
rtoes -11.8229
lfemur -41.1297 -6.14927 -27.967
ltibia 47.471
lfoot 7.02063 -14.4123
ltoes 40.9711
994
root 9.75868 27.2639 18.1547 6.19198 -21.6643 10.3965
lowerback 16.7889 2.80891 10.6035
upperback 9.51364 4.98044 6.87388
thorax 1.18335 2.62667 0.614241
lowerneck -0.288776 -4.71809 -2.99775
upperneck 20.0164 -5.11776 -6.7823
head 6.01132 -3.12436 -1.90882
rclavicle -3.49861e-014 -1.39944e-013
rhumerus 44.935 23.1857 -53.3607
rradius 46.0276
rwrist -0.861461
rhand -18.9833 -13.667
rfingers 7.12502
rthumb 7.32123 -43.5203
lclavicle -3.49861e-014 -1.39944e-013
lhumerus 19.0691 49.9664 9.64091
lradius 83.1644
lwrist 3.54104
lhand -47.826 -53.844
lfingers 7.12502
lthumb -20.5012 -24.9064
rfemur -37.9884 -6.10731 8.34016
rtibia 39.7062
rfoot -7.18043 -14.3813
rtoes -9.95489
lfemur -39.5769 -7.44901 -27.4169
ltibia 45.4287
lfoot 5.0671 -15.0239
ltoes 40.2539
